<svg width="400" height="71.25" viewBox="0 0 400 71.25" xmlns="http://www.w3.org/2000/svg"><g fill-rule="evenodd"><path d="M26.826 3.816c-.2.213-.192.232.054.138.158-.061.287-.046.287.032s-.484.173-1.074.21c-.714.046-1.183.167-1.397.361-.224.202-.458.259-.76.183-.367-.092-.436-.054-.436.242 0 .224-.105.35-.292.349-.249-.002-.255-.026-.041-.164.462-.299.015-.17-.591.17-.33.186-.561.274-.512.195.048-.079-.021-.143-.155-.143-.133 0-.207.035-.165.077.221.221-.275.673-.661.603-.233-.042-.416.003-.416.104 0 .099-.088.126-.195.059-.13-.08-.161-.03-.093.147.079.206-.02.28-.43.319-.362.036-.585.172-.697.427-.09.206-.261.375-.38.375s-.256.105-.305.234c-.05.128-.242.273-.429.322-.186.048-.289.168-.228.266.066.107-.061.186-.317.199-.789.038-.843.067-.83.434.006.201-.091.405-.217.453-.127.049-.184.014-.128-.077.056-.09.022-.164-.075-.164-.251 0-.22.662.032.686.115.01.321.032.458.048.138.017.564-.142.947-.352s.817-.382.964-.382c.147 0 .456-.123.685-.274.23-.15.696-.331 1.036-.401A21.25 21.25 0 0 0 22 8.086c1.76-.535 2-.529 2 .051 0 .278-.118.624-.262.768-.238.238-.23.262.083.262.235 0 .346-.108.346-.334 0-.216.111-.333.315-.333.174 0 .359-.113.412-.25.052-.138.199-.25.325-.25s.365-.15.531-.333c.166-.184.44-.334.609-.334.169 0 .308-.078.308-.175 0-.096.257-.283.572-.414.314-.131.619-.315.676-.408.058-.093.22-.169.361-.169s.455-.139.698-.308c.244-.17.593-.353.776-.407.183-.054.936-.317 1.673-.584.736-.267 1.685-.538 2.107-.601.578-.087.79-.2.857-.455.118-.451-7.14-.447-7.561.004M288.25 8.441c-2.152.449-2.74 1.04-3.488 3.507-.494 1.631-.072 5.403.67 5.987.129.102.235.257.235.345 0 .973 2.845 1.734 4.263 1.142.637-.266 1.903-1.519 1.903-1.882 0-.124.141-.54.313-.924.454-1.019.401-4.323-.091-5.587-.539-1.385-2.314-2.812-3.327-2.676-.08.01-.295.05-.478.088m-10.613.447c-.121.122-.745.914-1.387 1.759-.642.845-1.464 1.926-1.828 2.402-2.807 3.676-2.788 3.784.655 3.784 2.562 0 2.549-.007 2.622 1.423l.051.994.683.05.684.05.105-1.121c.11-1.186.253-1.389.976-1.393.927-.005.703-.775-.252-.868l-.529-.051-.092-3.584c-.05-1.971-.107-3.602-.125-3.625-.118-.147-1.383-.001-1.563.18M15.279 9.901c-.071.184-.214.262-.372.202-.142-.055-.216-.031-.165.051.052.083-.001.187-.116.23-.115.044.016.066.291.05.275-.017.588-.084.694-.15.107-.066.228-.025.271.09.058.159.125.163.283.016.276-.26.041-.606-.342-.506-.169.045-.334-.001-.368-.102-.033-.1-.112-.047-.176.119m274.178.187c1.677 1.175 1.725 6.752.07 7.995-1.785 1.34-3.251-.382-3.267-3.838-.017-3.482 1.445-5.383 3.197-4.157m-275.918 1.03c-.207.04-.334.142-.282.227.053.085.017.155-.08.155-.098 0-.177.068-.177.151 0 .255.588.014.801-.328.111-.178.182-.313.159-.3a4.22 4.22 0 0 1-.421.095m264.128 2.65c0 2.35.093 2.232-1.768 2.232h-1.566v-.439c0-.298.404-.941 1.25-1.994.688-.854 1.25-1.626 1.25-1.713 0-.287.412-.322.625-.053.136.171.209.855.209 1.967m27.125 12.906l-13.125 13.132v.847c0 1.854-.368 2.174 14.146-12.336L319 15.133v-.816c0-1.899.309-2.168-14.208 12.357M85.006 14.531c-.514.553-.54 40.636-.025 40.636.173 0 .352.149.401.333.136.523 14.83.523 15.157 0 .184-.294.388-.333 1.756-.333 1.223 0 1.569-.053 1.645-.25.068-.179.348-.25.983-.25.741 0 .905-.055.994-.334.078-.248.252-.333.678-.333.461 0 .572-.065.572-.333 0-.277.111-.334.654-.334.361 0 .768-.112.905-.25a.978.978 0 0 1 .595-.25c.235 0 .346-.107.346-.333 0-.271.111-.333.599-.333.458 0 .619-.078.686-.334.048-.183.191-.333.317-.333.127 0 .231-.15.231-.333 0-.223.111-.334.333-.334.184 0 .334-.104.334-.231 0-.133.249-.278.583-.341.349-.066.583-.207.583-.352 0-.133.115-.242.256-.242.14 0 .302-.132.36-.292.057-.16.242-.426.411-.59.169-.164.307-.445.307-.625 0-.216.113-.327.333-.327.215 0 .333-.111.333-.314 0-.173.149-.352.334-.401A.445.445 0 0 0 116 46.7c0-.182.112-.374.25-.427.138-.053.25-.281.25-.507 0-.264.119-.448.333-.516.245-.078.334-.252.334-.658 0-.413.084-.575.333-.64.278-.073.333-.228.333-.936 0-.615.064-.849.233-.849.307 0 .434-.369.434-1.264 0-.543.066-.736.25-.736.217 0 .25-.76.25-5.834s-.033-5.833-.25-5.833c-.189 0-.25-.204-.25-.832 0-.651-.072-.877-.333-1.04-.249-.155-.334-.389-.334-.917s-.085-.761-.333-.916c-.207-.129-.333-.389-.333-.684 0-.335-.099-.501-.334-.563-.184-.048-.333-.227-.333-.401 0-.172-.112-.314-.25-.314-.167 0-.25-.166-.25-.498 0-.318-.121-.574-.333-.707-.184-.115-.334-.303-.334-.418 0-.116-.15-.21-.333-.21-.222 0-.333-.111-.333-.333 0-.223-.111-.334-.334-.334-.222 0-.333-.111-.333-.333 0-.185-.111-.333-.25-.333-.138 0-.25-.12-.25-.266 0-.146-.15-.305-.333-.353-.184-.048-.334-.191-.334-.317 0-.127-.141-.231-.314-.231-.173 0-.352-.149-.401-.333-.062-.239-.227-.334-.583-.334s-.521-.094-.583-.333c-.048-.183-.207-.333-.353-.333s-.416-.15-.599-.334c-.183-.183-.513-.333-.732-.333-.22 0-.442-.113-.495-.25-.066-.171-.334-.25-.851-.25-.644 0-.755-.049-.755-.333 0-.292-.111-.334-.898-.334-.757 0-.91-.052-.984-.333-.079-.302-.227-.333-1.585-.333-1.178 0-1.518-.054-1.594-.25-.083-.218-1.175-.25-8.428-.25h-8.332l-.34.364m46.661-.134c0 .127-.15.27-.334.318-.324.085-.333.227-.333 5.103 0 4.159-.039 5.015-.231 5.015-.384 0-.431.571-.433 5.232-.002 4.074-.029 4.501-.294 4.695-.265.193-.297.689-.349 5.345-.045 4.076-.105 5.2-.291 5.467-.19.27-.235 1.298-.235 5.301v4.966l3.958-.044 3.958-.045.047-2.485c.039-2.125.087-2.515.333-2.695.264-.193.291-.903.334-8.925.043-7.758.078-8.748.318-9.013.22-.243.285-.837.35-3.193.077-2.826.087-2.887.39-2.584.229.229.312.556.312 1.228 0 .704.058.917.25.917.194 0 .25.221.25.986 0 1.138.108 1.514.434 1.514.177 0 .232.283.232 1.182 0 1.042.04 1.193.334 1.27.293.076.333.227.333 1.25 0 1.022.04 1.173.333 1.25.28.073.334.227.334.964 0 .576.085.948.25 1.084.171.142.25.521.25 1.203 0 .855.047 1.007.333 1.082.293.077.333.227.333 1.25s.041 1.173.334 1.25c.285.075.333.227.333 1.068 0 .758.076 1.056.333 1.314.251.251.334.555.334 1.232 0 .645.07.926.25.995.18.069.25.352.25 1.019 0 .717.074.987.333 1.209.255.218.333.492.333 1.165 0 .657.085.964.334 1.213.252.253.333.556.333 1.25 0 .806.04.917.333.917.271 0 .334.111.334.586v.586l3.958-.044 3.958-.045.057-.495c.03-.271.199-.594.375-.717.256-.18.318-.429.318-1.278 0-.914.045-1.066.334-1.142.278-.072.333-.227.333-.941 0-.605.073-.882.25-.95.179-.069.25-.347.25-.975 0-.74.053-.894.333-.967.294-.077.334-.227.334-1.269 0-1.072.031-1.183.333-1.183.293 0 .333-.111.333-.916 0-.67.063-.917.231-.917.27 0 .431-.504.434-1.357.001-.385.094-.643.252-.703.186-.072.25-.369.25-1.165 0-.929.044-1.081.333-1.157.282-.073.334-.227.334-1 0-.772.051-.926.333-1 .274-.071.333-.227.333-.868 0-.528.108-.918.334-1.205.239-.304.333-.676.333-1.317 0-.684.059-.895.25-.895s.25-.209.25-.879c0-.674.078-.947.333-1.165.264-.226.334-.492.334-1.268 0-.842.047-.995.333-1.069.278-.073.333-.228.333-.936 0-.622.088-.937.327-1.176.325-.325.328-.265.375 9.566.045 9.148.07 9.917.34 10.215.262.29.292.768.292 4.77v4.448l4.291-.045 4.292-.044.044-6.206c.042-6.027.034-6.216-.292-6.542-.326-.326-.335-.542-.335-7.896 0-7.309-.011-7.575-.334-7.985-.319-.406-.333-.676-.333-6.439 0-5.236-.032-6.015-.25-6.015a.252.252 0 0 1-.25-.253c0-.221-.695-.246-5.625-.208l-5.625.044-.052.542c-.033.335-.144.541-.292.541-.178 0-.239.229-.239.898 0 .757-.052.91-.334.984-.283.074-.333.227-.333 1.019 0 .686-.061.933-.232.933-.301 0-.435.366-.435 1.187 0 .43-.116.785-.333 1.018-.247.264-.333.588-.333 1.243 0 .676-.059.885-.25.885-.192 0-.25.211-.25.897 0 .757-.052.911-.334.985-.275.072-.333.227-.333.896 0 .628-.074.855-.333 1.017-.255.159-.334.388-.334.972 0 .511-.11.904-.333 1.188-.198.252-.333.676-.333 1.047 0 .351-.11.715-.25.831-.171.142-.25.52-.25 1.187 0 .869-.038.98-.334.98-.291 0-.333.111-.333.877 0 .696-.069.919-.333 1.084-.256.16-.334.389-.334.98 0 .53-.087.836-.279.977-.191.139-.303.526-.353 1.226-.053.723-.142 1.023-.304 1.023-.17 0-.23.261-.23 1 0 .751-.059 1-.236 1a.37.37 0 0 0-.321.208c-.046.115-.09-.005-.097-.266-.009-.327-.116-.501-.346-.561-.293-.076-.334-.227-.334-1.25 0-1.022-.04-1.173-.333-1.25-.293-.076-.333-.227-.333-1.25 0-1.022-.041-1.173-.334-1.25-.285-.074-.333-.227-.333-1.056 0-.638-.085-1.053-.25-1.218-.156-.157-.25-.566-.25-1.094 0-.663-.071-.888-.333-1.052-.277-.173-.334-.389-.334-1.267 0-.919-.044-1.07-.333-1.146-.284-.074-.333-.227-.333-1.028 0-.76-.064-.98-.334-1.148-.272-.17-.333-.389-.333-1.189 0-.718-.067-1.007-.25-1.077-.177-.068-.25-.345-.25-.95 0-.714-.055-.869-.333-.941-.285-.075-.334-.228-.334-1.054 0-1.119-.109-1.495-.434-1.495-.17 0-.232-.244-.232-.916 0-.806-.041-.917-.334-.917-.301 0-.333-.111-.333-1.172 0-.888-.061-1.195-.25-1.268-.15-.057-.25-.309-.25-.631 0-1.236-.13-1.262-6.335-1.262-4.57 0-5.498.039-5.498.23m149.842 3.509c-.109.131-.175.488-.145.791.072.758 1.625.875 1.807.136.225-.91-1.074-1.635-1.662-.927M98.548 21.833c.08.307.228.334 1.813.334 1.545 0 1.747.035 1.934.333.129.208.388.333.686.333.263 0 .572.113.686.25.114.138.405.25.647.25.259 0 .525.137.647.334a.796.796 0 0 0 .624.333c.304 0 .415.089.415.333 0 .223.111.334.333.334.184 0 .335.093.337.208.003.254.722.958.978.958.102 0 .185.15.185.334 0 .222.111.333.334.333.222 0 .333.111.333.333 0 .223.111.334.333.334.268 0 .334.111.334.563 0 .309.112.656.25.77.15.125.25.489.25.915 0 .454.119.858.333 1.13.311.396.333.677.333 4.17 0 3.606-.012 3.749-.333 3.833-.278.073-.333.228-.333.936 0 .644-.061.849-.25.849-.176 0-.25.178-.25.599 0 .459-.078.62-.334.686-.25.066-.333.228-.333.651 0 .453-.066.564-.333.564-.223 0-.334.111-.334.334 0 .183-.107.333-.238.333-.132 0-.287.15-.345.333-.058.184-.213.334-.345.334a.245.245 0 0 0-.238.25c0 .137-.12.25-.266.25-.146 0-.305.15-.353.333-.048.184-.227.333-.401.333-.203 0-.314.118-.314.334 0 .27-.111.333-.583.333-.407 0-.583.075-.583.25 0 .153-.156.25-.403.25-.576 0-.931.166-.931.434 0 .169-.234.233-.849.233-.708 0-.863.055-.936.333-.084.321-.227.333-3.817.333H93.5V34.907c0-9.039.053-12.894.176-12.818.281.174.991-.071.991-.342 0-.439 3.766-.355 3.881.086M19.763 37.478c-.113.184.368.613.519.462.059-.058.015-.107-.097-.107-.113 0-.162-.069-.109-.155a.185.185 0 0 0-.062-.253.184.184 0 0 0-.251.053" fill="#fff"/><path d="M268.708 6.11a.356.356 0 0 0-.208.301c0 .119-.151.256-.336.305-.522.136-.512 15.268.009 15.404.18.047.327.181.327.297 0 .39.71.412 13.535.414l12.785.002.34-.364c.187-.201.341-.445.343-.542.001-.097.066-.077.143.045.107.17.163.14.232-.125.06-.23.012-.347-.144-.347-.129 0-.234-.083-.234-.184 0-.102.101-.146.225-.099.172.066.224-.134.223-.857 0-.733-.015-.789-.067-.248-.075.793-.42 1.202-.768.912-.146-.121-.287-.127-.416-.019-.107.091-.158.114-.113.053.044-.061-.354-.38-.885-.71-.531-.329-1.145-.767-1.364-.973-.49-.462-.695-.471-.963-.042-.114.184-.311.334-.436.334-.126 0-.322.112-.436.25-.244.293-3.667.373-3.667.085 0-.09-.257-.272-.572-.403-.324-.136-.687-.462-.838-.753-.145-.282-.338-.513-.427-.513-.09 0-.163-.119-.163-.265 0-.146-.15-.456-.333-.689-.272-.345-.333-.676-.333-1.787 0-1.368-.438-2.259-1.109-2.259-.096 0-.485-.225-.865-.5s-.779-.5-.888-.5c-.109 0-.438-.262-.732-.583-.843-.92-.906-.816-.906 1.478v2.062l.77.087c.908.102 1.085.31 1.025 1.2l-.045.659.767-.046c1.552-.093 2.312 1.408 1.224 2.416-1.075.996-3.668-.489-2.643-1.514.318-.318.3-.652-.029-.526a2.3 2.3 0 0 1-.666.101c-.346 0-.403.079-.403.558 0 2.293-2.121 2.543-2.332.275l-.085-.917-2.258-.083c-3.305-.122-3.865-.666-2.575-2.5.32-.456.583-.905.583-.997 0-.092.15-.261.333-.375.184-.115.334-.303.334-.418 0-.116.077-.21.17-.21.094 0 .25-.169.345-.375.394-.849.774-1.427 1.241-1.889.498-.494 1.176-1.734.949-1.738-.067-.001-.309-.155-.539-.34-.425-.346-1.718-1.251-2.54-1.78-.252-.162-.458-.378-.459-.48-.001-.308-3.474-.551-4.126-.288M242.417 12c-.349.385-.184.457.19.083.274-.274.638-.344.483-.093-.054.086.052.145.235.131.183-.013.37-.121.415-.239.14-.365-.977-.265-1.323.118m4.082-.171c.136.086.429.112.649.056.273-.068.365-.041.287.086-.135.218.554.431 1.01.313.173-.045.07-.087-.237-.098-.361-.013-.541-.102-.541-.269 0-.184-.189-.25-.709-.248-.509.002-.638.047-.459.16m2.626.51c.206.082.375.24.375.35 0 .11.048.152.107.093.163-.163-.277-.617-.586-.605-.183.007-.15.06.104.162m28.076.052c-.019.169-.184.346-.368.394-.183.048-.333.21-.334.359-.001.15-.374.677-.829 1.171-.996 1.082-.959 1.185.428 1.185 1.289 0 1.267.035 1.193-1.93-.031-.818-.071-1.348-.09-1.179m-26.478.689c.151.151.362.221.468.155.121-.075.149-.047.075.073-.065.105-.034.192.07.192.427 0 .056-.586-.405-.639-.447-.051-.462-.035-.208.219m-12.779.531c-.061.061-.108.23-.105.375.004.221.043.213.239-.044.128-.17.313-.259.411-.199.098.061.178.031.178-.066 0-.194-.545-.243-.723-.066m13.889.056c0 .091.08.166.177.166.097 0 .135.067.085.148-.05.081.058.187.24.234.436.114.443-.311.009-.542-.403-.216-.511-.217-.511-.006m1.527 1c.608.581.584.571.584.257 0-.133-.058-.206-.13-.162-.072.044-.212-.071-.312-.257-.099-.186-.29-.338-.423-.338-.15 0-.043.19.281.5m-17.068.115c-.161.041-.292.174-.292.294s-.15.258-.333.306c-.208.054-.334.227-.334.46 0 .368.006.367.409-.068.225-.242.525-.441.667-.441.142 0 .258-.106.258-.236s.093-.274.208-.32c.264-.106-.171-.103-.583.005m18.375.718c0 .092.075.167.166.167.092 0 .167.101.167.224 0 .285.574.813.722.665.061-.061.111-.005.111.125 0 .131.335.499.745.82.409.32.711.676.672.791-.083.236.182.286.322.06.05-.081-.021-.24-.157-.354-.137-.113-.248-.304-.248-.424s-.15-.266-.334-.324c-.183-.058-.333-.211-.333-.339 0-.136-.101-.195-.243-.141-.163.063-.28-.053-.355-.352-.085-.34-.189-.425-.44-.36-.181.047-.286.044-.234-.008.128-.128-.201-.717-.401-.717a.164.164 0 0 0-.16.167m-11.797.593c-.204.143-.445.213-.537.157-.091-.057-.166-.024-.166.073 0 .264.962.214 1.116-.059.074-.129.359-.268.634-.308.48-.07.476-.074-.088-.098-.324-.013-.755.092-.959.235m3.63-.154a.98.98 0 0 1 .383.335c.074.124.333.226.578.226.648 0 .147-.463-.63-.581-.32-.049-.469-.04-.331.02m-11.727.311c-.058.152 0 .25.149.25a.248.248 0 0 0 .245-.25c0-.138-.067-.25-.149-.25-.082 0-.192.112-.245.25m52.394.312c0 .624.725 1.271 1.424 1.271 1.137 0 .444-.875-1.298-1.639-.069-.03-.126.135-.126.368m-38.415.107a.193.193 0 0 0 .264.071c.087-.054.138-.003.113.113-.025.116.104.232.288.259.183.027.239.006.125-.045a.394.394 0 0 1-.209-.331c0-.13-.154-.236-.343-.236-.19 0-.296.076-.238.169m-14.431.039c-.152.496-.103.609.194.451.38-.203.42-.492.068-.492-.137 0-.255.018-.262.041m6.477.317c-.149.095-.103.137.15.139.201.002.404-.06.451-.136.111-.179-.32-.181-.601-.003m-.795.36c-.002.166-.078.255-.17.198-.091-.056-.166-.023-.166.074 0 .205.441.239.562.043.045-.073.013-.242-.071-.375-.126-.199-.153-.188-.155.06m9.926.004c.047.122.176.229.287.238.11.008.388.061.617.116.398.095.4.092.042-.066-.206-.092-.375-.244-.375-.338 0-.095-.148-.172-.328-.172-.205 0-.296.083-.243.222m-10.932.532c-.116.139-.166.299-.111.354.17.17.614-.084.614-.353 0-.327-.233-.327-.503-.001m12.278.361c.197.039.396.216.442.394.109.416.616.425.616.012 0-.293-.673-.566-1.229-.499-.103.013-.026.055.171.093m-18.192.346c-.091.067-.178.258-.191.424-.024.287-.009.288.291.016.46-.416.376-.79-.1-.44m24.75.046c0 .095.15.334.334.531.373.401.407.345.17-.277-.159-.421-.504-.594-.504-.254m-20.153.598a.476.476 0 0 1-.347.443c-.221.058-.333.227-.333.506 0 .23-.094.456-.208.502-.125.05-.091.089.083.097.207.009.292-.113.292-.421 0-.317.067-.409.248-.339.269.103.521-.539.364-.928-.047-.118-.092-.055-.099.14m-5.069.437c-.333.244-.587 1.458-.305 1.458.102 0 .137-.123.078-.274a.412.412 0 0 1 .143-.459c.137-.101.292-.353.345-.559.113-.438.112-.439-.261-.166m25.581.344c-.104.125-.134.289-.066.364.068.075-.001.091-.154.037-.153-.055-.314-.004-.359.112-.144.374.407.225.674-.182.283-.433.208-.696-.095-.331m-3.734 1.39c.207.145.375.37.375.5 0 .365 1.566.209 1.638-.164.029-.153.198-.279.375-.279.176 0 .321-.08.321-.178 0-.234-.693-.028-.935.278-.203.255-1.311.33-1.156.078.115-.185-.198-.403-.659-.459-.31-.038-.307-.022.041.224m-22.353.144c-.056.147-.178.221-.27.164-.101-.063-.168.137-.168.499 0 .385.064.563.177.493.098-.06.136-.152.085-.203-.051-.051-.009-.193.093-.316s.13-.224.061-.224c-.068 0-.029-.114.087-.254.116-.14.172-.293.124-.341-.047-.047-.132.034-.189.182m4.228.256c0 .097-.075.13-.166.074-.092-.057-.167.007-.167.143 0 .135-.052.383-.116.551-.104.276-.09.281.145.048.272-.269.563-.992.399-.992-.052 0-.095.079-.095.176m-.467 2.423c-.028 1.14.019 1.409.301 1.734.253.292.333.321.333.121 0-.145-.109-.373-.242-.506-.155-.155-.263-.685-.301-1.47l-.057-1.228-.034 1.349m-4.199 1.656c0 .232.112.465.25.518.154.059.25.312.25.661 0 .311.065.566.144.566.187 0-.057-1.342-.269-1.479-.089-.058-.141-.236-.116-.396.024-.161-.024-.292-.107-.292-.084 0-.152.19-.152.422m5.833 2.245c.098.183.213.333.256.333.042 0 .077-.15.077-.333 0-.189-.111-.334-.256-.334-.204 0-.219.068-.077.334m-4 1.563c0 .138.075.297.167.353.091.057.166-.009.166-.147 0-.137-.075-.296-.166-.353-.092-.056-.167.01-.167.147m6.276.261c.169.165.37.263.447.219.183-.106-.146-.429-.487-.479-.226-.033-.22.007.04.26m-5.7.176c.048.229.087.473.088.541.002.069.134.124.294.123.198-.002.228-.044.092-.13-.11-.07-.281-.312-.38-.539l-.179-.412.085.417m6.811.523c.217.347.53.325.53-.037 0-.13-.163-.245-.362-.255-.312-.015-.335.025-.168.292m-5.57.946c.113.211.312.424.444.475.131.05.245.215.252.365.008.172.045.197.097.066.046-.114-.16-.451-.457-.748-.413-.413-.493-.45-.336-.158m8.385.097c.118.127.271.198.34.156.068-.041.125-.008.125.073 0 .082.112.149.25.149.35 0 .311-.233-.073-.438-.502-.269-.911-.231-.642.06m2.031.685c.174.131.374.202.444.159.07-.044.166.015.212.13.061.15.088.153.098.011.016-.239-.193-.381-.695-.471-.36-.065-.362-.058-.059.171m-9.4.243c0 .095.113.172.25.172.138 0 .232.084.209.186-.023.102.133.215.346.251.325.055.351.029.163-.159-.365-.365-.968-.645-.968-.45m1.537 1.033c.036.106.196.213.357.236.234.035.253-.003.095-.193-.236-.285-.542-.314-.452-.043m10.94.145c.542.452.935.448.651-.006a.763.763 0 0 0-.626-.327l-.418.005.393.328m1.19.328c0 .091.079.166.177.166.097 0 .13.075.073.167-.057.092.026.167.183.167.264 0 .263-.025-.016-.334-.34-.375-.417-.406-.417-.166m-10.54.451c.208.04.508.038.667-.003.159-.042-.01-.075-.377-.073-.367.002-.497.036-.29.076m2.29.882c.363.401.355.4.484.065.074-.192.031-.241-.149-.172-.138.053-.252.024-.252-.065s-.086-.161-.192-.161c-.109 0-.062.144.109.333m1.781.625c.04.21.242.305.72.338.471.033.595 0 .424-.114-.133-.088-.294-.129-.356-.09-.063.039-.207-.041-.321-.178-.279-.336-.535-.313-.467.044m10.082.85c1.196 1.202 1.72 1.806 1.72 1.979 0 .073.15.226.334.341.424.264.434.015.015-.365a1.644 1.644 0 0 1-.42-.692c-.056-.223-.204-.405-.329-.405-.125 0-.267-.15-.315-.333-.048-.183-.206-.333-.352-.333s-.266-.108-.266-.239-.15-.286-.333-.345c-.184-.058-.334-.213-.334-.344 0-.132-.155-.239-.345-.239-.278 0-.156.19.625.975m-8.249-.183c.039.204.244.307.688.344.348.028.673.155.721.281.049.126.326.281.616.344.29.063.578.193.639.289.131.206.806.338.804.157-.001-.143-.805-.54-1.095-.54-.108 0-.288-.111-.4-.246-.112-.135-.454-.292-.759-.35-.305-.057-.595-.209-.645-.337-.132-.346-.636-.294-.569.058m-195.454.719c-.061.098-.07.218-.021.267.119.119.444-.091.444-.288 0-.213-.287-.199-.423.021m282.68-.022c-.06.098-.049.179.025.18.074.002.033.067-.091.146-.145.092-.165.181-.054.25.095.059.222-.05.283-.242.122-.384.01-.614-.163-.334m25.923.719c-.206.331-.204.351.017.168.138-.113.288-.17.333-.125.045.045.081-.03.081-.168 0-.356-.16-.309-.431.125m-109.301.459c-.013.183.058.333.159.333.102 0 .135-.049.075-.11-.06-.06-.026-.21.076-.333.14-.169.128-.224-.049-.224-.13 0-.247.15-.261.334m67.76 1.416c-.084 1.555-.414 3.346-.455 2.469-.021-.452-.35-.692-.35-.256 0 .432-.176.571-.442.35-.122-.101-.448-.151-.723-.111-.276.041-.502.007-.502-.074s-.075-.101-.167-.044c-.091.056-.166.443-.166.858 0 .616-.062.772-.334.843-.311.082-.333.228-.333 2.215 0 1.998-.021 2.134-.338 2.217-.186.048-.327.151-.314.227.099.563-.044 1.717-.208 1.681-.222-.047-.432.555-.457 1.309-.016.497.757 1.566 1.132 1.566.081 0 .185.15.233.334.268 1.024 1.785.236 1.785-.928 0-.223.15-.556.334-.739l.333-.333v.633c0 1.078-.358 1.033 8.283 1.033h7.884v-3h-3.759l.063-.666c.041-.429.147-.667.297-.667.17 0 .232-.241.232-.897 0-.757.052-.911.333-.985.276-.072.334-.227.334-.896 0-.627.074-.855.332-1.016.376-.235.468-2.039.104-2.04-.102 0 .045-.142.328-.314.507-.309.824-1.675.443-1.91-.071-.044-.117.171-.102.478.016.34-.064.592-.203.646a.245.245 0 0 0-.142.317c.05.131-.019.228-.162.228-.138 0-.223-.044-.19-.097.033-.054-.345-.072-.841-.04-.495.031-.901.134-.901.228 0 .108-.088.099-.233-.022-.134-.111-.259-.127-.292-.037-.032.087-.168.038-.303-.108-.216-.235-.212-.253.042-.155.194.074.286.027.286-.145 0-.158-.079-.208-.208-.133-.115.067-.077-.028.083-.211.161-.184.292-.399.292-.478 0-.079-.11.002-.245.18-.134.178-.252.249-.261.157-.048-.464-.306.611-.321 1.333-.009.459-.127.979-.262 1.157-.134.178-.244.647-.244 1.042 0 .516-.068.718-.242.718-.133 0-.318.131-.412.292-.161.277-.17.277-.175 0-.002-.161-.117-.292-.255-.292-.215 0-.395-1.58-.269-2.375.01-.069-.037-.116-.106-.105-.535.084-.624-.043-.599-.862.018-.571-.036-.821-.167-.778-.192.064-.215.139-.254.807-.019.311-.056.326-.303.125-.244-.197-.262-.194-.132.021.114.189.037.176-.312-.052-.369-.241-.513-.262-.706-.102-.198.165-.224.152-.138-.072.071-.184.017-.274-.163-.274-.147 0-.267-.08-.267-.178 0-.098-.113-.066-.25.071-.141.141-.25.548-.25.934 0 .454.084.716.25.78.186.071.25.367.25 1.153 0 1.028.242 1.907.526 1.907.077 0 .14.181.14.403 0 .931.809 1.279 1.593.686.178-.135.487-.247.687-.25.2-.003.481-.124.625-.268.228-.228.262-.229.262-.011 0 .138-.148.298-.33.356-.181.057-.323.156-.314.219.093.651-.057 1.532-.261 1.532-.132 0-.287.15-.345.333-.102.322-.252.333-4.428.333-4.211 0-4.322-.008-4.322-.333 0-.185.111-.333.25-.333.209 0 .25-.351.25-2.156 0-2.009.023-2.162.333-2.261.282-.09.334-.252.334-1.059 0-.842.039-.953.333-.953.349 0 .342-.031.379 1.636.013.607.087.812.319.886.256.081.302.285.302 1.335 0 1.127.03 1.238.333 1.238.278 0 .334.111.334.667v.667h.765c.619 0 .782-.063.851-.325.061-.233.256-.338.692-.375.572-.047.611-.088.66-.677.05-.598-.292-1.244-.532-1.004-.057.056-.103-.36-.103-.925 0-.802-.055-1.028-.25-1.028-.194 0-.25-.222-.25-1 0-.592-.072-1-.177-1-.097 0-.127-.08-.066-.178.06-.097-.039-.216-.221-.264-.24-.063-.307-.186-.246-.447.084-.358.083-.359-.198-.027-.156.183-.226.22-.156.083.114-.222.094-.222-.181 0-.225.182-.328.196-.376.051-.078-.23-.497-.114-.928.257-.272.233-.289.231-.19-.026.061-.16.028-.282-.077-.282a.18.18 0 0 0-.184.177c0 .097-.075.13-.167.073-.291-.18-.189-.579.125-.49.161.046.105-.008-.125-.121a8.012 8.012 0 0 1-.479-.248c-.034-.024-.114-.816-.177-1.759l-.116-1.715-.089 1.666m6.199-1.425c-.134.086-.18.218-.102.291.079.074.177.041.218-.074.041-.115.147-.208.237-.208.089 0 .124.062.077.139-.048.076.025.138.161.138.307 0 .214-.345-.109-.402-.13-.023-.347.029-.482.116m-73.316.467c.335.428.523.538.895.526.239-.008.262-.037.083-.104-.137-.051-.384-.232-.548-.403-.384-.4-.741-.416-.43-.019m72.187-.01c.16.042.423.042.583 0 .16-.042.029-.076-.292-.076s-.452.034-.291.076m6.166.057c-.206.083-.375.263-.375.401 0 .154.097.213.25.154.138-.053.25-.163.25-.245 0-.082.085-.13.188-.107.103.023.222-.052.264-.167.088-.24-.049-.248-.577-.036M383.5 40c0 .778-.056 1-.25 1-.374 0-.301.281.1.386.239.063.307.161.213.311-.076.121-.163.406-.195.633-.07.515-.182.637-.344.376-.097-.157-.241-.158-.648-.004-.417.157-.61.152-.942-.026-.339-.181-.512-.184-.92-.015-.352.146-.644.16-.967.048-.255-.089-.614-.106-.797-.039-.183.067-.426.048-.54-.043-.114-.091-.433-.132-.708-.092-.376.056-.503.008-.505-.189-.002-.23-.022-.232-.164-.013-.089.138-.162.569-.164.959l-.002.708H378.5v3.833h-.583c-.53 0-.669.125-.603.542.01.069-.281.125-.647.125H376v.999c0 .818.06 1.036.333 1.206.184.115.334.34.334.502 0 .178.125.293.319.293.497 0 .847-.18.847-.434 0-.173.255-.233.987-.233 1.078 0 1.562-.119 1.419-.35-.051-.083.156-.155.459-.162.86-.02 1.194-.114 1.399-.395.104-.143.432-.259.729-.259.398 0 .561-.087.626-.334.082-.314.227-.333 2.567-.333h2.481V50.325l-2.792.046-2.791.046v2.833l6.791.044 6.792.043v-3.004H391V49h2.413c2.756 0 2.66.06 2.556-1.594l-.052-.823-2.459-.046-2.458-.046v-1.148l2.125-.046 2.125-.047.048-1.355c.039-1.096-.001-1.373-.208-1.453-.141-.054-.257-.028-.257.058 0 .086-.105.116-.233.067s-.285-.006-.348.096c-.083.135-.176.136-.333.005-.353-.292-.914-.35-.812-.082.072.187-.167.215-1.301.15-.764-.044-1.746-.096-2.181-.116-.459-.021-.792-.116-.792-.226 0-.125-.382-.182-1.125-.167-1.449.03-1.576.356-.139.356.587 0 1.032.057.989.125-.118.19-2.225.151-2.225-.041 0-.092-.412-.167-.916-.167-.719 0-.917-.056-.917-.26 0-.143-.075-.213-.167-.157-.091.057-.166.249-.166.427 0 .182-.114.323-.26.323-.143 0-.221.063-.174.139.047.077-.013.139-.133.139-.162 0-.186-.144-.094-.555.069-.306.077-.557.018-.559-.059-.001-.004-.068.122-.148.145-.091.178-.229.089-.372-.078-.125-.118-.733-.09-1.352.028-.619.007-1.125-.047-1.125s-.098.45-.098 1m-127.434-.224c.224.065.256.128.111.218-.151.093-.132.154.071.232.201.077.261.027.221-.183-.031-.159-.205-.304-.388-.323-.304-.031-.305-.027-.015.056m-5.038.224c.102.309.639.436.639.151 0-.114-.05-.157-.11-.097s-.223.017-.36-.097c-.206-.169-.236-.162-.169.043m66.514.444c-.115.046-.203.209-.196.362.009.174.045.2.098.068.046-.115.165-.16.263-.099.101.062.13.032.066-.071-.064-.104.048-.211.266-.253.313-.06.321-.074.044-.082a1.63 1.63 0 0 0-.541.075m3.526.459c.024.298.143.501.308.525.169.025.235-.047.178-.194-.049-.129-.151-.234-.226-.234-.075 0-.174-.131-.219-.292-.045-.16-.063-.073-.041.195m69.759.559c-.125 1.033.031 1.205 1.098 1.205.696 0 .908-.059.908-.25 0-.192-.212-.25-.907-.25h-.907l-.053-.709-.053-.708-.086.712m-134.128-.254c.144.115.303.321.352.459.049.138.095.045.103-.209.01-.364-.062-.458-.353-.458-.321 0-.333.025-.102.208m63.134-.055c0 .099.071.18.157.18.087 0 .128.152.092.338-.035.186-.004.3.071.254.208-.129.123-.805-.111-.883-.115-.039-.209.011-.209.111m-67.666.278c0 .293.465.826.602.689.071-.071-.035-.294-.237-.495-.201-.201-.365-.288-.365-.194m83.193 2.852c-.021 2.295-.074 2.894-.265 3.001-.253.141-.392.73-.415 1.758-.009.438-.088.625-.263.625-.181 0-.25.185-.25.666 0 .562-.054.667-.342.667-.308 0-.337.087-.292.875.035.602.117.862.263.832.117-.024.259.076.315.221.055.145.283.333.505.418.222.084.362.221.312.303-.134.216.389.377.685.211.137-.077.225-.208.194-.292-.032-.083.112-.175.318-.205.306-.043.375-.159.375-.625 0-.46.065-.571.333-.571.278 0 .334-.111.334-.667s.055-.667.333-.667c.293 0 .333-.111.333-.908 0-.615.077-.952.239-1.042.218-.122.379-.676.414-1.425.012-.259.218-.291 1.847-.291h1.834l.021 2.666c.011 1.467.039 2.742.062 2.834.023.091.051.279.063.416.031.378 2.774.365 2.919-.013.056-.145.101-1.533.101-3.084v-2.819h4.334v3.166l-1.542.006c-1.867.006-2.467.304-1.884.935.096.105.232.157.301.115.068-.041.125.379.125.934v1.01h2.416c2.037 0 2.417-.039 2.417-.25 0-.137.12-.25.266-.25.146 0 .303-.143.348-.318a.626.626 0 0 1 .401-.401c.306-.079.317-.297.291-5.39-.015-2.919-.078-4.895-.139-4.391-.062.504-.126.73-.142.5-.024-.326-.064-.363-.185-.171-.137.216-.167.216-.25 0-.068-.177-.371-.247-1.092-.251l-.998-.006-.025.589c-.024.559-.031.551-.142-.161l-.116-.75-.025.959-.025.958h-4.334l-.019-.958c-.011-.527-.009-1.02.004-1.096.013-.076-.05-.092-.14-.036-.09.055-.116.223-.059.373.074.192.042.233-.109.14-.126-.078-.28-.038-.375.097-.122.176-.18.181-.244.024s-.201-.145-.583.053c-.474.244-.505.24-.589-.082-.072-.276-.149-.308-.404-.172-.245.131-.315.112-.315-.087 0-.141-.075-.256-.167-.256-.092 0-.166.444-.166 1v1H338.5l-.025-.958-.025-.959-.117.75c-.1.644-.12.674-.141.209-.026-.55-.235-.668-.682-.385-.156.099-.413.063-.734-.103-.452-.234-.507-.231-.654.032-.131.234-.188.245-.306.059-.106-.167-.152-.117-.174.188-.016.23-.08.004-.142-.5-.075-.608-.121.047-.14 1.95m20.019-1.575L355.364 44l1.526-.003c1.123-.001 1.461-.049 1.277-.179-.223-.157-.223-.169 0-.109.213.058.262.821.333 5.138l.083 5.07 1.286.048c1.144.043 1.31.011 1.499-.291.328-.526 8.21-.533 8.347-.007.079.3.227.333 1.516.333 1.747 0 1.63.279 1.566-3.75l-.047-3-.625-.052-.625-.051v-2.338c0-1.799-.048-2.319-.208-2.26-.115.042-.191.158-.169.258.022.099-.074.137-.213.084-.194-.074-.208-.149-.061-.327.163-.196-.686-.231-5.588-.231-4.58 0-5.755.044-5.656.209.087.143.039.137-.154-.019-.154-.125-.397-.182-.541-.127-.15.058-.217.03-.159-.065.056-.09.02-.164-.08-.164-.124 0-.131-.096-.023-.299.127-.237.094-.304-.161-.323-.25-.019-.32.085-.32.471 0 .444-.035.477-.334.317-.319-.17-.428-.01-.358.525.007.059-.265-.028-.606-.195-.613-.299-.621-.298-.821.059-.194.346-.203.347-.211.028-.007-.268-.039-.286-.162-.092-.109.173-.171.031-.217-.5-.038-.437-.07-.212-.079.55m3.658-1.115c.054.053 2.792.089 6.086.08l5.988-.017.186.38.186.381-.05-.417-.049-.417-6.222-.043c-3.422-.024-6.178 0-6.125.053m12.692 1.074l.021 1.25 1.458.048 1.459.048v-1.257c0-.726-.071-1.256-.167-1.256-.092 0-.167.192-.167.427 0 .241-.072.381-.166.323-.092-.057-.167-.016-.167.091s-.113.151-.25.099c-.153-.059-.25 0-.25.152 0 .217-.051.215-.4-.013-.315-.207-.415-.216-.473-.046-.059.176-.126.173-.35-.012-.235-.194-.281-.194-.301 0-.013.126-.079-.071-.146-.438-.096-.524-.118-.4-.101.584m-118.896.063c0 .543.253.699.296.183.018-.218-.041-.442-.132-.498-.091-.056-.164.084-.164.315m111.5-.063c0 .091-.112.166-.25.166-.137 0-.25-.075-.25-.166 0-.092.113-.167.25-.167.138 0 .25.075.25.167m3.75 0c.057.091-.056.166-.25.166s-.306-.075-.25-.166c.057-.092.169-.167.25-.167.081 0 .194.075.25.167m-110.938.39c.102.123.13.279.062.347-.068.068-.015.099.119.068.133-.03.246.032.25.139.015.398.257.429.257.033 0-.458-.277-.811-.637-.811-.179 0-.192.055-.051.224m110.897.918c.338.018.458.112.458.358 0 .323-.111.334-3.5.334h-3.5v-.75l3.042.016c1.673.009 3.248.027 3.5.042m15.458.525c0 .333.083.5.25.5.137 0 .25.075.25.167 0 .103.861.166 2.25.166h2.25V46.5l-2.542.015a132.03 132.03 0 0 1-3.334-.013c-.686-.023-.813.025-.948.361-.112.281-.158-.059-.165-1.238L381.5 44h2v.5m-126.038 1.117c-.328.363-.335 1.055-.01.93.234-.09.453-.747.352-1.053-.038-.114-.171-.066-.342.123m-4.42.493c-.262.106-.271.498-.016.656.123.076.147.045.066-.085-.073-.119.002-.3.183-.437.302-.229.179-.3-.233-.134m-.386 1.104c-.428.334-.522.763-.145.665.175-.046.275-.153.223-.239-.053-.085-.005-.264.105-.397.243-.293.17-.305-.183-.029m-17.281.312c-.04.152-.216.314-.39.36-.175.045-.318.161-.318.257 0 .098.214.052.487-.105.267-.153.45-.337.406-.409-.044-.071.031-.129.166-.129.136 0 .284.094.33.208.062.154.088.149.098-.02.011-.194.056-.194.295 0 .243.197.262.194.138-.021-.09-.157-.009-.131.218.067.411.361.5.094.101-.304-.349-.349-1.431-.281-1.531.096m21.644.004c-.01.154-.137.397-.281.541-.238.239-.238.262.005.262.314 0 .484-.356.374-.782-.067-.257-.081-.261-.098-.021m-23.246 1.22c.053.137.167.25.255.25.087 0 .116-.069.064-.152-.052-.084 0-.191.115-.237.115-.047.043-.091-.16-.098-.263-.009-.342.059-.274.237m4.06.167c.114.137.394.25.622.25.325 0 .39.062.303.291-.085.223-.065.246.084.098.251-.249.062-.556-.342-.556-.173 0-.36-.075-.417-.167a.373.373 0 0 0-.28-.166c-.112 0-.101.092.03.25m18.41.298c-.391.453-.412.588-.077.5.185-.048.334-.227.334-.401 0-.364-.022-.372-.257-.099m-16.784.562c.116.047.171.148.123.226-.048.077 0 .195.108.261.115.071.15.049.087-.054-.06-.096 0-.217.132-.267.17-.066.212-.01.141.19-.077.222-.053.241.111.09.301-.278.062-.559-.463-.543-.246.007-.354.051-.239.097m10.305.164c-.058.15-.066.313-.018.361.048.048.087-.009.087-.125 0-.117.109-.171.242-.12.161.062.211.013.149-.149-.123-.32-.33-.306-.46.033M369.667 50c0 .324-.111.333-4.084.333-3.972 0-4.083-.009-4.083-.333s.111-.333 4.083-.333c3.973 0 4.084.009 4.084.333m-136.167.305c0 .417.07.528.333.528.216 0 .334.111.334.314 0 .174.149.353.333.401.183.048.333.019.333-.064a.152.152 0 0 0-.151-.151c-.083 0-.383-.35-.666-.778l-.516-.779v.529m-29.076.252c-.293.215-.291.229.052.318.22.058.317.029.253-.076-.058-.093-.002-.235.125-.315.126-.08.15-.147.053-.148-.097-.002-.315.098-.483.221m37.031.11c.33.385.712.439.712.101 0-.238-.345-.435-.762-.435-.185 0-.175.071.05.334m14.096-.227c.059.059-.135.23-.43.38-.296.151-.519.366-.496.477.023.112-.055.203-.173.203s-.225.146-.239.324c-.016.217.054.294.214.232.131-.05.196-.158.145-.24-.05-.083.1-.223.335-.312.234-.089.426-.269.426-.399s.113-.279.25-.332c.295-.113.336-.44.056-.44-.107 0-.147.048-.088.107m-7.449.321c-.053.138.008.239.143.239.333 0 .466-.281.185-.389a.257.257 0 0 0-.328.15M235.084 52c-.057.091-.024.167.073.167s.326.15.51.333c.183.183.445.333.583.333.198 0 .183-.067-.071-.32-.48-.48-.973-.711-1.095-.513m18.73.125a.962.962 0 0 0 .004.262c.013.076-.037.101-.11.055-.196-.121-.976.512-.821.667.072.072.183.05.247-.05.064-.099.285-.233.491-.298.219-.068.375-.251.375-.439 0-.307-.145-.46-.186-.197m-17.145.917c-.001.196.121.287.373.278.25-.009.292-.045.125-.108a.905.905 0 0 1-.373-.279c-.075-.113-.123-.071-.125.109m15.164.603c0 .09-.131.198-.291.24-.226.059-.209.081.073.096.404.021.653-.232.388-.396-.093-.058-.17-.031-.17.06m-12.636.638c.04.21.248.292.804.316l.749.033-.625-.166c-.344-.091-.625-.233-.625-.316 0-.082-.08-.15-.179-.15-.098 0-.154.127-.124.283m10.72.217c-.278.119-.242.145.218.155.328.007.51-.056.448-.155-.12-.194-.214-.194-.666 0m-8.655.148c-.162.261.303.487.988.48l.667-.006-.5-.212c-.375-.158-.531-.163-.623-.019-.079.124-.123.089-.125-.099-.002-.307-.252-.395-.407-.144m7.653.021c-.058.094-.169.13-.248.081-.079-.049-.189-.016-.244.073-.055.089-.203.123-.328.075s-.276-.009-.335.086c-.067.108.106.165.459.152.438-.017 1.291-.636.876-.636-.042 0-.122.076-.18.169M40.667 66.615c0 .094-.319.253-.709.354l-.708.183.667-.089c.692-.092 1.06-.308.864-.505-.063-.062-.114-.037-.114.057" fill="#3577c9"/><path d="M34.384 3.826c-.063.239-.289.356-.854.441-.422.063-1.371.334-2.107.601-.737.267-1.49.53-1.673.584-.183.054-.532.237-.776.407-.243.169-.557.308-.698.308-.141 0-.303.076-.361.169-.057.093-.362.277-.676.408-.315.131-.572.318-.572.414 0 .097-.139.175-.308.175-.169 0-.443.15-.609.334-.166.183-.405.333-.531.333s-.273.112-.325.25c-.053.137-.238.25-.412.25-.204 0-.315.117-.315.333 0 .226-.111.334-.346.334-.313 0-.321-.024-.083-.262.144-.144.262-.49.262-.768 0-.58-.24-.586-2-.051a21.25 21.25 0 0 1-1.535.406c-.34.07-.806.251-1.036.401-.229.151-.538.274-.685.274-.147 0-.581.172-.964.382-.383.21-.809.369-.947.352a19.214 19.214 0 0 0-.458-.048c-.252-.024-.283-.686-.032-.686.097 0 .131.074.075.164-.056.091-.004.128.115.082.119-.046.217-.26.217-.477 0-.417-.323-.421-.482-.006-.05.13-.248.237-.439.237-.192 0-.309.063-.261.141.048.078-.094.239-.315.357s-.442.319-.49.446c-.069.179-.019.193.226.061.174-.092.353-.263.4-.378.056-.14.089-.145.098-.018.007.106.155.156.328.111.384-.101.628.236.364.501-.146.146-.227.138-.332-.032-.076-.124-.181-.156-.234-.071-.052.084-.342.148-.645.142-.389-.007-.603.088-.727.323-.103.195-.311.313-.5.285-.211-.032-.254-.001-.125.087.279.191.014.556-.427.589-.241.018-.333.108-.273.265.075.195.046.2-.162.027-.21-.174-.254-.163-.254.06 0 .149-.075.27-.167.27-.091 0-.166.113-.166.25a.25.25 0 0 1-.25.25c-.138 0-.241.057-.231.125.059.374-.057.542-.373.542-.311 0-.326.034-.125.282.155.192.162.242.02.157-.114-.069-.208-.046-.208.051s-.15.177-.333.177c-.186 0-.334.111-.334.25 0 .137-.1.25-.223.25s-.309.187-.413.416c-.104.23-.266.417-.36.417-.094 0-.17.185-.17.411a.69.69 0 0 1-.334.589c-.183.098-.333.27-.333.382 0 .113-.15.298-.333.413-.184.114-.334.348-.334.519a.768.768 0 0 1-.25.519c-.137.114-.25.281-.25.369 0 .089-.15.353-.333.586-.183.233-.333.561-.333.729 0 .167-.15.385-.334.483-.218.117-.333.349-.333.673 0 .271-.063.494-.14.494-.189 0-.527.767-.527 1.197 0 .192-.116.434-.258.538-.143.104-.298.45-.347.769-.048.318-.194.745-.324.948-.131.203-.237.729-.237 1.168 0 .621-.075.846-.337 1.01-.329.205-.336.363-.327 7.796.006 4.748.069 7.549.168 7.488.087-.054.114.017.06.159-.058.151.011.299.168.36.195.074.268.322.268.906 0 .492.097.9.25 1.054.137.137.25.439.25.67 0 .49.323 1.27.526 1.27.077 0 .14.181.14.403 0 .575.166.93.435.93.215 0 .308.297.246.787-.015.111.127.298.313.415.21.131.34.39.34.677 0 .256.108.507.239.557.132.051.289.316.35.59.06.273.214.537.343.587.129.049.234.223.234.386s.15.335.334.383a.443.443 0 0 1 .333.436c0 .192.15.499.333.682.184.184.334.379.334.435 0 .192.75.893.958.896.115.001.208.153.208.336 0 .183.064.333.141.333.077 0 .282.263.454.584.173.32.401.583.507.583.106 0 .232.15.28.333.048.184.207.334.353.334s.265.094.265.21c0 .115.231.397.512.625.282.228.698.583.926.79.227.206.513.375.636.375s.267.112.32.25c.053.137.202.25.332.25.129 0 .275.15.323.333.048.183.206.333.352.333s.266.105.266.233c0 .254.35.434.847.434.176 0 .32.107.32.239 0 .131.143.284.318.339.174.056.36.211.411.345.058.15.319.244.682.244.478 0 .589.063.589.333s.111.333.583.333c.387 0 .583.078.583.233 0 .268.355.434.931.434.233 0 .403.098.403.232 0 .256.35.435.852.435.179 0 .368.112.421.25.062.163.322.25.744.25.427 0 .763.114.983.333.244.244.555.333 1.166.333.596 0 .834.066.834.23 0 .264.711.437 1.799.437.488 0 .873.104 1.08.292.635.575 11.121.43 11.121-.153 0-.077.318-.14.708-.141 1.136-.003 1.958-.186 1.958-.436 0-.166.252-.229.917-.229.865 0 1.009-.083.936-.541-.01-.069.35-.125.802-.125.508 0 .917-.096 1.072-.25a.97.97 0 0 1 .596-.25c.191 0 .476-.15.633-.334.157-.183.455-.333.663-.333.208 0 .472-.15.587-.333.139-.223.388-.334.751-.334.432 0 .543-.068.543-.333 0-.26.111-.333.502-.333.295 0 .619-.137.787-.334.157-.183.381-.333.498-.333.118 0 .213-.104.213-.231 0-.133.25-.279.584-.341.333-.063.583-.209.583-.341 0-.127.15-.279.333-.337.184-.058.334-.213.334-.345 0-.131.15-.238.333-.238.185 0 .333-.111.333-.25 0-.138.105-.25.233-.25s.409-.187.625-.414c.216-.228.451-.415.522-.417.341-.007 2.287-2.217 2.287-2.597 0-.295.091-.406.333-.406.223 0 .334-.111.334-.333 0-.234.112-.334.375-.336.256-.002.307-.045.162-.138-.154-.097-.086-.193.241-.342.363-.165.406-.237.213-.36-.184-.116-.189-.153-.021-.155.412-.005.773-.514.85-1.199.007-.063.17-.164.363-.225.253-.081.329-.215.277-.488-.05-.264.005-.372.184-.359.144.011.331-.2.428-.481.095-.275.262-.557.371-.626.108-.07.247-.35.307-.624s.222-.562.361-.639c.139-.078.245-.191.237-.251-.073-.535.021-.944.217-.944.258 0 .435-.351.435-.862 0-.184.15-.526.333-.759.183-.233.333-.676.333-.984 0-.309.068-.561.151-.561.231 0 .516-.97.516-1.757 0-.475.082-.739.25-.804.194-.074.25-.403.25-1.48 0-1.179.05-1.428.333-1.671.33-.282.334-.491.334-17.386 0-16.96-.003-17.101-.334-17.187-.184-.049-.333-.228-.333-.401 0-.173-.104-.314-.231-.314-.126 0-.269-.15-.317-.334-.136-.519-31.433-.527-31.568-.007m-11.143 1.16c.052.084 0 .19-.115.237-.126.051-.094.089.082.097.161.007.292-.099.292-.237 0-.137-.079-.25-.177-.25-.097 0-.134.069-.082.153m248.967 1.135c.344.036.626.155.626.264.001.109.207.331.459.493.822.529 2.115 1.434 2.54 1.78.23.185.472.339.539.34.227.004-.451 1.244-.949 1.738-.467.462-.847 1.04-1.241 1.889-.095.206-.251.375-.345.375-.093 0-.17.094-.17.21 0 .115-.15.303-.334.418-.183.114-.333.283-.333.375 0 .092-.263.541-.583.997-1.29 1.834-.73 2.378 2.575 2.5l2.258.083.085.917c.104 1.116.198 1.278.83 1.416.994.219 1.502-.352 1.502-1.691 0-.479.057-.558.403-.558a2.3 2.3 0 0 0 .666-.101c.329-.126.347.208.029.526-1.025 1.025 1.568 2.51 2.643 1.514 1.088-1.008.328-2.509-1.224-2.416l-.767.046.045-.659c.06-.89-.117-1.098-1.025-1.2l-.77-.087v-2.062c0-2.294.063-2.398.906-1.478.294.321.623.583.732.583.109 0 .508.225.888.5s.769.5.865.5c.671 0 1.109.891 1.109 2.259 0 1.111.061 1.442.333 1.787.183.233.333.543.333.689 0 .146.073.265.163.265.089 0 .282.231.427.513.151.291.514.617.838.753.315.131.572.313.572.403 0 .288 3.423.208 3.667-.085.114-.138.31-.25.436-.25.125 0 .322-.15.436-.334.268-.429.473-.42.963.042.219.206.833.644 1.364.973.531.33.91.665.841.745-.068.08-.005.057.139-.053.195-.148.31-.151.451-.01.141.141.248.14.42-.002.127-.106.269-.153.316-.106.047.047.078-3.053.068-6.889l-.017-6.975-.529-.529-.529-.529-11.638.028c-6.401.015-11.356.057-11.013.093m-253.041.678c0 .088.106.249.236.357.19.157.228.139.194-.096-.045-.305-.43-.539-.43-.261m-.625.485c-.207.04-.375.144-.375.232 0 .087-.198.234-.44.326s-.393.214-.336.271c.057.057-.019.194-.169.304-.229.167-.188.187.251.123.288-.043.482-.144.431-.227-.05-.082.044-.199.21-.26.167-.061.363-.211.436-.332a.491.491 0 0 1 .375-.221c.133 0 .242-.075.242-.167 0-.091-.057-.156-.125-.144l-.5.095m271.151 1.341c2.297.816 3.666 5.274 2.453 7.991-.172.384-.313.8-.313.924 0 .363-1.266 1.616-1.903 1.882-1.418.592-4.263-.169-4.263-1.142 0-.088-.106-.243-.235-.345-.742-.584-1.164-4.356-.67-5.987.774-2.555 1.567-3.274 3.966-3.595.079-.011.513.112.965.272m-10.493.083c.018.023.075 1.654.125 3.625l.092 3.584.529.051c.955.093 1.179.863.252.868-.723.004-.866.207-.976 1.393l-.105 1.121-.684-.05-.683-.05-.051-.994c-.073-1.43-.06-1.423-2.622-1.423-3.443 0-3.462-.108-.655-3.784.364-.476 1.186-1.557 1.828-2.402.642-.845 1.266-1.637 1.387-1.759.18-.181 1.445-.327 1.563-.18m8.112 1.584c-1.502 1.649-1.493 6.421.015 7.786.475.43 1.63.432 2.2.005 1.655-1.243 1.607-6.82-.07-7.995-.613-.429-1.66-.33-2.145.204m-10.27 1.324c-.115.043-.209.15-.209.238 0 .087-.562.859-1.25 1.713-.846 1.053-1.25 1.696-1.25 1.994V16h1.566c1.861 0 1.768.118 1.768-2.232 0-1.713-.177-2.32-.625-2.152m-33.314.297c-.038.101-.22.195-.403.208-.183.014-.289-.045-.235-.131.146-.236-.202-.188-.453.063-.121.121-.445.228-.72.239-.951.035-1.25.113-1.25.327 0 .118-.188.224-.417.235a4.32 4.32 0 0 0-.583.063c-.092.023-.24.051-.328.062-.089.012-.119.133-.066.271.067.173-.011.25-.255.25-.193 0-.351.073-.351.161 0 .089-.103.122-.229.074-.125-.048-.273.029-.328.172-.055.143-.196.262-.313.265-.261.006-1.13.751-1.13.969 0 .086-.186.203-.412.26-.227.056-.493.254-.592.439-.099.185-.251.292-.338.238-.087-.054-.158.019-.158.162 0 .143-.104.26-.232.26-.127 0-.221.131-.208.292.014.182-.086.283-.267.268-.159-.012-.262.025-.228.084.117.2-.221.856-.441.856-.121 0-.232.156-.246.347-.029.383-.356.853-.522.75-.059-.036-.121.198-.139.519-.019.328-.158.676-.319.793-.171.125-.244.32-.181.484.058.15.041.274-.037.274-.079 0-.133.131-.12.291.013.161-.058.277-.158.26-.099-.018-.18.072-.18.201 0 .128.081.184.18.125.1-.059.078.019-.048.174s-.173.282-.104.282c.068 0 .05.094-.04.208-.193.247-.227 2.792-.037 2.792.072 0 .111.13.088.288a.686.686 0 0 0 .182.512c.123.123.233.443.244.712.031.718.037.736.354 1.053.161.161.292.434.292.608 0 .213.082.285.25.221.153-.059.25 0 .25.152 0 .416.453 1.173.552.924.063-.157.092-.144.102.046.007.146.196.479.42.739.224.261.366.54.316.621-.049.08.049.123.218.093.214-.036.31.05.313.281.002.224.099.317.294.284.168-.029.342.09.412.282.119.32.168.351.55.351.097 0 .13.074.074.164-.06.098.015.12.186.055.223-.086.263-.046.177.177-.064.166-.043.246.05.189.159-.099 1.169.344 1.169.512 0 .049-.093.035-.208-.031-.115-.066-.15-.056-.079.022.071.079.296.166.5.196.6.086.815.202.705.381-.061.099.11.168.418.168.514 0 1.08.363.879.563-.107.108.263.162.91.135.207-.009.375.053.375.138 0 .084.114.11.252.057.169-.065.223-.02.163.135-.067.176.101.241.686.266.427.019.886.126 1.021.238.251.208.418.261 1.295.415.275.049.576.183.669.299.093.116.407.262.697.326s.617.224.726.355c.109.132.287.24.395.24.291 0 1.094.397 1.095.541.001.069.193.125.428.125.246 0 .382.072.322.17-.058.093-.194.116-.302.051-.121-.073-.112-.013.024.154.121.15.323.233.448.185.125-.048.361.069.525.26.163.191.375.347.47.347.095 0 .268.153.385.34.117.187.285.295.373.24.089-.055.162.062.162.259 0 .222.13.393.342.449.193.05.307.184.26.305-.045.119.027.307.161.418.323.268.765 1.216.703 1.507-.027.128.044.213.159.19.221-.044.25.215.212 1.875-.015.685-.104 1.063-.28 1.198-.146.111-.203.285-.132.4.087.14.057.161-.095.067-.159-.098-.191-.06-.116.136.057.15.028.319-.066.378-.094.058-.134.203-.088.322.046.12-.061.254-.239.301-.213.056-.288.174-.221.35.066.172.012.265-.155.265-.141 0-.304.15-.362.333-.058.184-.197.334-.308.334-.11 0-.335.156-.499.347-.173.203-.404.306-.555.248-.179-.069-.23-.024-.165.144.063.164.014.213-.148.151-.133-.051-.242-.01-.242.092 0 .101-.187.184-.416.184-.229 0-.417.085-.417.187 0 .122-.098.108-.281-.041-.246-.2-.268-.193-.174.057.171.458-.046.489-3.499.492-2.913.002-3.301-.029-3.488-.285-.184-.251-.568-.378-1.357-.446-.118-.011-.178-.115-.133-.233.051-.133-.009-.179-.159-.121-.132.05-.192.171-.132.267.063.103.028.125-.087.054-.108-.066-.156-.185-.107-.264.085-.137-.542-.432-.785-.368-.066.017-.077-.081-.024-.217.068-.179-.021-.248-.319-.248-.428 0-.869-.364-.676-.557.061-.061-.053-.11-.251-.11-.199 0-.361-.101-.361-.224s-.163-.367-.362-.542c-.227-.198-.308-.224-.218-.067.121.21.102.216-.122.034-.217-.176-.282-.176-.352 0-.066.165-.09.167-.1.007-.007-.114-.138-.208-.291-.208-.153 0-.229.049-.169.108.059.06-.264.349-.72.642-.455.293-.779.582-.719.642.059.059.027.108-.072.108-.1 0-.215-.094-.258-.208-.042-.115-.131-.001-.199.253-.151.569.104 1.223.757 1.938.27.296.491.649.491.785 0 .135.094.234.209.22.409-.054.582.018 1.059.433.813.711.877.75 1.393.853.275.055.465.157.422.227-.044.071.047.23.201.355.241.195.261.192.141-.023-.114-.203-.098-.211.084-.041.124.114.435.208.691.208.257 0 .467.075.467.167 0 .091.131.167.292.169.212.002.234.039.08.137-.119.075.228.124.791.11.807-.019 1.006.028 1.017.238.008.168.043.188.096.057.065-.161.197-.158.612.015.723.3 5.041.374 5.381.092.184-.153.293-.157.436-.014.143.144.265.123.491-.081.284-.257.919-.408 1.762-.42.207-.003.375-.104.375-.224 0-.121.225-.269.5-.329.275-.061.5-.192.5-.291 0-.1.047-.135.104-.078.056.056.212-.007.346-.141.134-.134.313-.201.397-.149.084.052.153-.019.153-.159 0-.249.629-.704.875-.634.069.019.107-.059.084-.173-.023-.115.052-.19.166-.167.189.038.281-.166.228-.5-.01-.069.089-.125.221-.125a.468.468 0 0 0 .359-.192c.078-.127.039-.151-.115-.071-.129.067-.057-.034.159-.224.217-.191.502-.346.635-.346s.195-.075.138-.167c-.056-.092-.019-.167.084-.167.102 0 .14-.075.083-.166-.057-.092-.019-.167.083-.167.103 0 .146-.065.097-.145-.049-.08.059-.316.24-.526.182-.209.33-.556.33-.771 0-.215.07-.391.155-.391.231 0 .535-1.057.535-1.86 0-.244.145-.574.322-.734.368-.334.416-.673.113-.796-.16-.066-.155-.122.024-.247.154-.108.187-.268.098-.472a2.364 2.364 0 0 1-.157-.475c-.012-.091-.112-.148-.223-.125-.11.023-.191-.014-.181-.083a.538.538 0 0 0-.008-.208c-.016-.046-.047-.448-.069-.894-.027-.536-.137-.881-.325-1.019a.793.793 0 0 1-.284-.569c0-.199-.119-.408-.264-.463-.213-.082-.221-.129-.042-.243.169-.107.15-.141-.079-.143-.166-.002-.257-.075-.202-.164.055-.089-.053-.257-.24-.373-.187-.117-.34-.273-.34-.347 0-.073-.187-.321-.416-.55-.4-.4-.496-.624-.423-.985.019-.092-.02-.113-.085-.048-.066.065-.502-.216-.97-.625-.467-.409-.936-.744-1.042-.744-.105 0-.233-.158-.283-.35-.051-.195-.171-.301-.271-.239-.098.061-.238-.05-.311-.246-.073-.196-.184-.353-.248-.348-.277.02-1.121-.202-1.048-.275.167-.167-.388-.537-.652-.436-.159.061-.477-.044-.756-.25-.265-.196-.639-.356-.831-.356-.193 0-.313-.06-.268-.133.045-.073.013-.242-.071-.375-.089-.142-.154-.162-.155-.048-.003.212-.992-.065-1.188-.333-.056-.077-.15-.133-.209-.125-.314.042-.45 0-.378-.118.045-.072-.119-.14-.365-.15-.799-.032-1.196-.119-1.196-.263 0-.078-.069-.099-.153-.047-.084.052-.184 0-.222-.115-.038-.115-.326-.211-.639-.213-.408-.003-.558-.074-.53-.25.025-.156-.114-.258-.375-.278l-.821-.062c-.224-.018-.445-.131-.492-.252-.057-.15.006-.188.198-.12.156.056.238.05.181-.013-.056-.064-.244-.143-.416-.178-.656-.13-.807-.182-.999-.344-.109-.091-.162-.224-.119-.295.043-.071.016-.119-.059-.106-.412.072-.721-.046-.721-.275 0-.143-.075-.214-.167-.157-.091.057-.166.019-.166-.083 0-.103-.075-.14-.167-.084-.092.057-.167-.051-.167-.24 0-.225-.108-.343-.314-.343-.3 0-.967-.781-.889-1.042.02-.068-.043-.125-.14-.125-.097 0-.135-.067-.084-.149.051-.082-.02-.192-.157-.245-.137-.052-.249-.199-.249-.325s-.153-.407-.341-.623c-.493-.568-.426-4.419.069-4.009.133.11.201-.024.232-.455.024-.336.155-.694.292-.795.136-.102.248-.353.248-.558 0-.232.126-.405.333-.459.185-.048.334-.227.334-.401 0-.203.118-.314.333-.314.222 0 .333-.111.333-.333 0-.184.095-.334.21-.334.116 0 .308-.156.427-.347.123-.197.321-.307.457-.255.132.05.24.015.24-.079 0-.095.075-.125.166-.069.092.057.168-.032.17-.198.002-.256.027-.264.164-.052.095.148.162.17.164.053.002-.192.624-.486.882-.417.071.019.173-.079.226-.217.053-.139.239-.252.412-.252.174 0 .316-.079.316-.177 0-.097.073-.131.162-.076.089.055.332-.01.541-.144.62-.398 4.326-.279 4.805.155.198.179.39.307.426.284.252-.16 1.232-.009 1.232.19 0 .255.351.435.847.435.282 0 .392.167.345.524-.007.06.135.069.317.022.245-.064.305-.021.232.167-.073.192.068.281.581.368.532.09.678.187.678.451 0 .231.079.306.25.241.223-.086.326.078.271.432-.01.067.173.17.407.229.27.068.393.191.338.336-.08.206.095.304.443.249.068-.01.125.131.125.314 0 .231.115.337.375.345.357.011.359.018.041.155-.307.132-.301.168.042.232.289.054.54.302.451.446-.053.086.171.155.497.155.327 0 .594-.079.594-.175 0-.096.232-.256.516-.355.378-.132.456-.218.291-.322-.235-.149-.109-.193.554-.193.167 0 .242-.092.189-.229-.062-.163-.002-.197.208-.116.189.072.257.049.188-.062-.06-.097.002-.269.139-.383.319-.265.312-.366-.052-.758-.165-.178-.35-.453-.41-.612-.067-.176-.212-.25-.369-.19-.171.066-.231.022-.179-.128.046-.13-.238-.476-.664-.809-.41-.321-.745-.689-.745-.82 0-.13-.05-.186-.111-.125-.127.127-.722-.362-.722-.594 0-.237-.406-.586-.762-.655-.177-.034-.321-.148-.321-.254a.524.524 0 0 0-.152-.331c-.088-.08-.102-.051-.032.07.192.334-.071.24-.373-.134-.256-.316-.577-.446-1.179-.479-.13-.007-.19-.059-.133-.116.15-.15-.311-.563-.629-.563-.163 0-.224-.077-.153-.192.074-.12.046-.148-.075-.073-.106.066-.311.002-.454-.141-.144-.143-.488-.261-.767-.261-.353 0-.48-.067-.42-.222.089-.232-.065-.273-1.05-.279-.743-.005-1.197-.147-1.08-.338.051-.081-.117-.15-.372-.152a99.564 99.564 0 0 1-1.857-.058c-.907-.036-1.417.009-1.463.129m33.534 3.365c-.097.252-2.18.322-2.331.079-.049-.079.284-.548.739-1.042s.828-1.021.829-1.171c.001-.149.151-.311.334-.359.184-.048.349-.225.368-.394.019-.169.059.361.09 1.179.031.818.018 1.587-.029 1.708M201 12.954a.875.875 0 0 0-.383.32c-.092.155-.494.226-1.286.226-.982 0-1.179.049-1.331.333-.142.265-.349.334-1.011.334-.587 0-.861.074-.929.25-.054.141-.302.25-.572.25-.306 0-.54.119-.655.333-.118.222-.349.333-.688.333-.369 0-.534.092-.597.334-.062.237-.227.333-.573.333-.272 0-.527.107-.579.244-.051.134-.237.289-.411.344-.175.056-.318.209-.318.34 0 .131-.123.239-.272.239-.15 0-.394.139-.542.309-.148.17-.438.363-.645.428-.206.065-.375.217-.375.338 0 .12-.15.258-.333.306-.183.048-.333.207-.333.353s-.087.266-.194.266c-.257 0-1.14.998-1.14 1.29 0 .126-.066.188-.147.138-.081-.05-.238.128-.349.395-.11.267-.306.527-.436.576-.129.05-.234.255-.234.457 0 .201-.05.317-.11.256-.202-.202-.557.257-.557.722 0 .32-.102.487-.333.547-.223.059-.334.228-.334.511 0 .234-.117.49-.26.57-.251.14-.366.458-.394 1.079-.007.161-.125.292-.262.292-.178 0-.25.181-.25.63 0 .423-.11.723-.334.915-.264.226-.333.491-.333 1.287 0 .741-.06 1.001-.231 1.001-.377 0-.431.568-.431 4.5 0 3.933.054 4.5.431 4.5.171 0 .231.26.231 1 0 .778.074 1.074.333 1.334.203.202.334.555.334.899 0 .325.097.602.229.653.126.048.279.356.341.684.067.36.208.597.354.597.158 0 .242.173.242.494 0 .324.115.556.334.673a.69.69 0 0 1 .333.587c0 .229.147.502.333.618.184.115.334.305.334.423 0 .119.109.258.243.309.134.051.289.237.345.411.055.175.208.318.34.318a.24.24 0 0 1 .238.242c0 .133.188.443.417.691.229.247.417.513.417.592 0 .078.112.142.25.142.137 0 .25.115.25.255 0 .141.131.304.291.364.161.06.39.245.51.412.12.166.401.302.625.302.296 0 .407.091.407.334 0 .222.111.333.333.333.188 0 .334.111.334.254 0 .14.187.326.416.413.23.087.417.235.417.329 0 .094.056.159.125.144.219-.046.787.244.925.472.073.122.383.221.689.221.415 0 .577.084.643.334.063.241.227.333.594.333.293 0 .571.113.657.268.093.165.463.301.967.357.449.049.877.191.95.315.095.161.519.227 1.465.227 1.091 0 1.417.063 1.804.349.639.472 4.563.432 4.916-.05.159-.218.516-.296 1.528-.333.819-.031 1.308-.117 1.289-.227-.018-.102.305-.193.75-.213.542-.025.866-.136 1.058-.364.162-.193.484-.329.778-.329.669 0 1.029-.152 1.029-.434 0-.143.178-.233.463-.233.256 0 .59-.148.748-.333.157-.183.399-.333.537-.333a.252.252 0 0 0 .252-.25c0-.138.144-.25.319-.25.497 0 .847-.18.847-.435 0-.128.15-.232.334-.232.222 0 .333-.111.333-.333 0-.223.111-.334.333-.334.184 0 .334-.107.334-.238 0-.132.15-.287.333-.345.183-.058.333-.213.333-.345a.24.24 0 0 1 .239-.238c.131 0 .286-.15.345-.334.058-.183.213-.333.344-.333.132 0 .239-.15.239-.333 0-.184.081-.334.179-.334.224 0 1.154-.916 1.154-1.136 0-.089.106-.202.235-.251.128-.05.284-.32.346-.601.062-.282.219-.512.349-.512.13 0 .237-.138.237-.307 0-.169.15-.443.333-.609.184-.166.334-.416.334-.555 0-.139.119-.384.264-.544.145-.161.305-.595.354-.965.05-.37.172-.657.271-.638.1.019.248-.265.33-.632.081-.366.253-.865.381-1.109.135-.255.233-.931.233-1.599 0-.953.06-1.211.34-1.464.498-.451.48-5.561-.022-6.266-.235-.329-.318-.731-.318-1.532 0-1.171-.114-1.665-.351-1.519-.082.051-.149-.081-.15-.292-.001-.628-.338-1.652-.508-1.546-.087.053-.159-.076-.16-.288-.004-.645-.191-1.135-.434-1.135-.135 0-.23-.173-.23-.416 0-.23-.15-.567-.334-.75-.183-.184-.333-.446-.333-.584 0-.137-.104-.25-.231-.25-.133 0-.279-.249-.341-.583-.061-.322-.21-.583-.333-.583-.122 0-.262-.15-.31-.334-.048-.183-.207-.333-.353-.333-.154 0-.265-.139-.265-.333 0-.223-.111-.334-.334-.334-.188 0-.333-.111-.333-.255a.398.398 0 0 0-.234-.345c-.128-.049-.271-.234-.317-.411-.047-.177-.204-.322-.35-.322s-.266-.113-.266-.25c0-.139-.148-.25-.333-.25-.222 0-.333-.111-.333-.333 0-.223-.111-.334-.334-.334-.194 0-.333-.111-.333-.265 0-.146-.15-.305-.333-.353-.184-.048-.334-.188-.334-.31 0-.123-.261-.272-.583-.333-.334-.062-.583-.208-.583-.341 0-.127-.142-.231-.314-.231-.174 0-.353-.149-.401-.333-.063-.242-.228-.334-.597-.334-.339 0-.57-.111-.688-.333-.114-.213-.349-.333-.652-.333-.261 0-.568-.113-.682-.25-.132-.16-.501-.25-1.02-.25-.584 0-.813-.066-.813-.233 0-.334-.379-.434-1.643-.434-.91 0-1.169-.062-1.402-.333-.283-.331-4.688-.503-5.455-.213m87.293 3.781c1.063.59 1.201 1.098.298 1.098-.699 0-1.424-.647-1.424-1.271 0-.233.057-.398.126-.368.07.031.52.274 1 .541m-5.258 1.307c.466.73.152 1.208-.793 1.208-.813 0-.826-.008-.878-.553-.098-1.018 1.131-1.5 1.671-.655m-77.461.047c.208.157.713.244 1.418.244.914 0 1.129.055 1.303.334.15.24.388.333.854.333.477 0 .666.077.723.295.047.182.26.31.555.334.263.022.537.146.61.276.072.129.361.286.642.348.281.061.551.217.6.346.05.129.192.234.316.234.125 0 .307.15.405.334.117.218.349.333.673.333.383 0 .494.075.494.333 0 .184.071.334.159.334.206 0 1.007.801 1.007 1.007 0 .088.15.159.334.159.299 0 .435.334.354.87-.01.066.132.2.314.298.182.098.332.279.332.404 0 .124.105.266.234.316.129.049.286.325.349.612.063.288.22.563.349.613.129.049.234.226.234.392 0 .48.183.829.435.829.155 0 .232.197.232.594 0 .677.273 1.296.508 1.15.094-.058.159.367.159 1.047 0 .749.084 1.257.244 1.468.359.474.363 4.444.006 4.741-.177.146-.25.534-.25 1.316 0 .903-.062 1.163-.334 1.395-.23.197-.333.492-.333.954 0 .46-.072.668-.232.668-.252 0-.435.349-.435.829 0 .166-.103.342-.229.39-.126.048-.279.356-.341.684-.067.36-.208.597-.354.597-.133 0-.242.15-.242.333 0 .189-.111.334-.256.334-.14 0-.303.125-.362.279-.059.153-.244.416-.411.583-.168.167-.305.454-.305.638 0 .222-.111.333-.333.333-.185 0-.333.111-.333.25 0 .137-.113.25-.25.25-.138 0-.4.15-.584.333-.183.184-.407.334-.498.334-.091 0-.259.15-.374.333-.114.183-.297.333-.407.333-.109 0-.246.15-.304.334-.074.234-.252.333-.6.333-.285 0-.534.106-.59.25-.055.145-.305.25-.593.25-.358 0-.523.094-.585.333-.068.26-.228.334-.721.334-.796 0-1.161.136-1.161.434 0 .181-.324.233-1.458.235-1.422.002-2.011.144-1.828.439.212.343-1.688.251-2.038-.099-.291-.291-.553-.343-1.722-.343-1.174 0-1.423-.049-1.665-.333-.185-.216-.492-.333-.871-.333-.362 0-.711-.127-.918-.334-.183-.183-.486-.333-.672-.333-.186 0-.382-.113-.434-.25-.054-.141-.302-.25-.567-.25-.325 0-.504-.104-.577-.333-.058-.184-.239-.334-.402-.334-.163 0-.432-.15-.598-.333-.166-.183-.362-.333-.435-.333-.187 0-.982-.816-.982-1.008 0-.087-.15-.159-.333-.159-.222 0-.333-.111-.333-.333 0-.223-.111-.334-.334-.334-.222 0-.333-.111-.333-.333 0-.183-.107-.333-.237-.333s-.286-.225-.346-.499c-.06-.275-.203-.556-.318-.625-.114-.07-.256-.258-.315-.418-.059-.16-.222-.292-.362-.292-.179 0-.255-.168-.255-.564 0-.423-.083-.585-.334-.651-.263-.069-.333-.227-.333-.757 0-.369-.1-.77-.222-.892s-.272-.597-.334-1.054c-.062-.457-.225-.915-.362-1.017-.362-.269-.372-6.982-.01-7.12.137-.053.282-.431.342-.893.058-.441.213-1.001.345-1.244.133-.243.241-.67.241-.947 0-.358.097-.536.333-.611.248-.078.334-.252.334-.678 0-.402.075-.572.255-.572.14 0 .303-.131.362-.291.059-.161.201-.349.315-.418.115-.069.258-.351.318-.625s.216-.499.346-.499c.13 0 .237-.15.237-.333 0-.189.111-.334.255-.334a.404.404 0 0 0 .349-.243c.051-.134.237-.289.411-.345.175-.055.318-.208.318-.34a.24.24 0 0 1 .239-.238c.131 0 .286-.15.345-.334.058-.183.213-.333.344-.333.132 0 .239-.15.239-.333 0-.26.111-.334.5-.334.275 0 .65-.131.833-.291l.667-.584c.183-.16.486-.291.674-.291.187 0 .501-.15.698-.334.212-.198.588-.333.925-.333.427 0 .589-.082.655-.333.078-.3.227-.334 1.489-.334 1.093 0 1.424-.055 1.499-.25.136-.354 3.164-.35 3.634.006M37.389 19.906c.061.159.482.277 1.258.354.751.073 1.198.196 1.254.344.055.142.343.229.759.229.49 0 .727.09.879.334.114.183.361.333.547.333.187 0 .468.15.625.333.157.184.399.334.537.334.139 0 .252.112.252.25s.148.25.332.25c.182 0 .426.15.54.333a.777.777 0 0 0 .585.333c.233 0 .376.101.376.266 0 .146.15.305.334.353.183.048.333.198.333.333s.15.285.333.333c.185.049.334.228.334.401 0 .173.078.314.175.314.096 0 .285.263.419.584.134.321.312.583.397.583.084 0 .2.15.259.333.058.184.213.334.344.334.156 0 .239.179.239.515 0 .376.091.54.333.603.275.072.334.227.334.883 0 .554.076.826.25.892.151.058.25.311.251.643.001.718.305 1.797.507 1.797.275 0 .203 5.125-.075 5.283-.129.074-.271.505-.318.967-.046.458-.203 1.058-.349 1.333-.145.275-.265.704-.265.953-.001.281-.128.52-.335.631-.218.116-.333.349-.333.672 0 .333-.083.494-.255.494-.141 0-.304.132-.363.292-.059.16-.2.348-.315.418-.114.069-.257.35-.317.625-.06.274-.216.499-.347.499-.13 0-.236.15-.236.333 0 .222-.111.333-.334.333-.222 0-.333.111-.333.334 0 .222-.111.333-.333.333-.184 0-.335.094-.337.208-.004.314-.687.891-1.205 1.019-.252.062-.458.224-.458.36 0 .139-.152.246-.349.246a.443.443 0 0 0-.436.334c-.062.237-.228.333-.573.333-.278 0-.527.107-.582.25-.055.142-.303.25-.577.25-.3 0-.559.125-.689.333-.165.265-.388.334-1.084.334-.655 0-.962.084-1.21.333-.308.307-.556.333-3.167.333-2.611 0-2.859-.026-3.167-.333-.248-.249-.555-.333-1.21-.333-.696 0-.919-.069-1.084-.334-.133-.212-.389-.333-.707-.333-.332 0-.499-.083-.499-.25 0-.173-.173-.25-.564-.25-.423 0-.585-.083-.651-.333a.443.443 0 0 0-.436-.334c-.201 0-.349-.107-.349-.254 0-.149-.206-.295-.5-.354-.275-.055-.5-.198-.5-.318s-.15-.265-.333-.324c-.183-.058-.333-.213-.333-.344 0-.132-.15-.239-.334-.239-.222 0-.333-.111-.333-.333 0-.194-.111-.334-.266-.334-.146 0-.304-.15-.352-.333-.048-.183-.191-.333-.318-.333a.226.226 0 0 1-.231-.219c0-.12-.15-.379-.333-.576-.183-.197-.333-.481-.333-.631 0-.15-.15-.311-.334-.359-.25-.066-.333-.228-.333-.651 0-.391-.077-.564-.25-.564-.167 0-.25-.167-.25-.502 0-.295-.137-.619-.333-.787-.26-.223-.334-.492-.334-1.223 0-.725-.075-1.005-.333-1.238-.352-.319-.534-5.417-.193-5.417.229 0 .465-.699.506-1.497.021-.411.153-.874.293-1.029.141-.155.297-.587.347-.961.056-.42.178-.68.319-.68.149 0 .228-.201.228-.583 0-.413.075-.583.255-.583.141 0 .304-.132.364-.292.06-.16.245-.39.412-.509.166-.12.302-.409.302-.641 0-.283.111-.452.334-.51.183-.048.333-.183.333-.3 0-.117.113-.256.25-.309a.41.41 0 0 0 .25-.351c0-.144.145-.255.333-.255.223 0 .334-.111.334-.333 0-.19.111-.334.257-.334.141 0 .418-.15.614-.333.197-.183.494-.333.66-.333.166 0 .302-.113.302-.25 0-.138.101-.25.224-.25s.36-.15.526-.334c.166-.183.485-.333.708-.333.266 0 .437-.115.494-.333.072-.276.227-.334.901-.334.586 0 .814-.065.814-.233 0-.166.336-.267 1.179-.351.765-.077 1.21-.2 1.267-.35.133-.345 4.644-.339 4.776.007m283.373 13.856c-.329.329-.333.554-.012.678.137.052.25.275.25.494v.399h-6.833v3.594c0 2.353.057 3.557.166 3.49.092-.057.167-.037.167.044 0 .081.226.115.502.074.275-.04.601.01.723.111.266.221.442.082.442-.35 0-.436.329-.196.35.256.04.846.366-.893.463-2.469l.103-1.666 7.667-.09c8.203-.095 7.82-.079 7.667-.327-.057-.092-.011-.167.101-.167s.155-.049.095-.109c-.061-.061-.035-.2.056-.31.245-.295.113-1.739-.176-1.922-.133-.084-1.949-.155-4.035-.156l-3.791-.003v-.46c0-.279-.131-.541-.334-.668-.183-.114-.333-.32-.333-.456 0-.371-2.866-.36-3.238.013m36.508-.005a1.75 1.75 0 0 0-.103.519c0 .136-.113.36-.25.498-.138.137-.25.469-.25.738 0 .377-.076.488-.334.488-.222 0-.333.111-.333.333 0 .184-.111.334-.247.334s-.294.187-.351.415c-.057.229-.172.374-.254.323-.262-.162-.365.429-.127.726.402.502.63.996.513 1.113-.169.169-.201 1.022-.09 2.398.062.778.151 1.143.241 1 .108-.169.145-.143.152.108.008.319.017.318.211-.028.2-.357.208-.358.821-.059.341.167.613.254.606.195-.07-.535.039-.695.358-.525.3.161.334.127.334-.327 0-.398.072-.506.339-.506.287 0 .312.051.161.333-.128.239-.127.334.004.334.1 0 .136.074.08.164-.058.095.009.123.159.065.144-.055.387.002.541.127.193.156.241.162.154.019-.099-.165 1.076-.209 5.656-.209 4.902 0 5.751.035 5.588.231-.147.178-.131.253.072.331.145.056.22.032.167-.053-.052-.085 0-.216.117-.29.116-.074.222-.266.235-.425.012-.16-.044-.249-.125-.199-.082.051-.148.01-.148-.09 0-.129-1.769-.177-6.016-.165-3.309.009-6.059-.026-6.111-.078-.053-.052 2.804-.095 6.349-.095h6.444l.013.625c.008.344.053.528.1.41.071-.176.134-.176.347 0 .214.176.274.176.334-.002.058-.17.158-.161.473.046.349.228.4.23.4.013 0-.152.097-.211.25-.152.137.052.25.008.25-.099 0-.107.075-.148.167-.091.094.058.166-.082.166-.323 0-.235.073-.427.163-.427.179 0 .209-2.323.031-2.35a28.134 28.134 0 0 0-1.905-.165c-.541-.031-.741-.099-.625-.215.093-.093.17-.342.17-.553 0-.357.068-.384.99-.384.544 0 1.04-.08 1.1-.178.061-.098.214-.138.341-.089.333.128.626-.512.699-1.532.099-1.359.081-1.367-2.974-1.367h-2.635l-.052-.542-.053-.542-1.458-.048c-1.344-.044-1.458-.023-1.458.272 0 .181-.146.359-.334.408-.224.059-.333.227-.333.517 0 .768-.563 1.247-.667.567l-.083-.549-2.448-.046-2.448-.046-.052-.537-.052-.538-1.438-.048c-1.201-.039-1.455-.003-1.542.222m-21.737.443c-.143.144-.195 1.162-.182 3.625.016 2.938.211 6.276.294 5.008.02-.304.066-.355.171-.188.118.186.175.175.306-.059.147-.263.202-.266.654-.032.321.166.578.202.734.103.434-.275.635-.165.703.385.058.469.071.447.094-.167l.026-.708h1.82c1.001 0 1.938-.046 2.083-.101.175-.067.264-.009.264.172 0 .217.066.239.315.105.255-.136.332-.104.404.172.084.322.115.326.589.082.382-.198.519-.21.583-.053.064.157.122.152.244-.024.095-.135.249-.175.375-.097.151.093.183.052.109-.14-.057-.15-.021-.324.081-.387.112-.069.138-.038.066.078-.088.142.495.193 2.224.193h2.343l.028.708c.027.674.031.68.092.119l.063-.589.99.006c.714.004 1.016.074 1.084.251.083.216.113.216.25 0 .121-.192.161-.155.182.171.082 1.268.278-2.07.293-5.008.013-2.463-.038-3.481-.182-3.625-.288-.288-16.811-.288-17.1 0m48.55-.084a1.071 1.071 0 0 0-.516.311c-.144.184-.948.242-3.833.278l-3.651.045-.048 1.292c-.033.858.013 1.291.134 1.291.101 0 .141.071.087.157-.054.087.415.206 1.074.271l1.17.115V41H376.679l.015.767c.01.494.066.686.158.541.114-.18.143-.172.145.038.002.197.129.245.505.189.275-.04.594.001.708.092.114.091.357.11.54.043.183-.067.542-.05.797.039.323.112.615.098.967-.048.408-.169.581-.166.92.015.332.178.525.183.942.026.407-.154.551-.153.648.004.162.261.274.139.344-.376.032-.227.119-.512.195-.633.094-.15.026-.248-.213-.311-.192-.05-.35-.158-.35-.239 0-.081-.338-.147-.75-.147h-.75v-3.12l.953-.098c1.178-.122 1.07-.294 1.137 1.789.031.969.108 1.845.171 1.947.063.102.012.251-.115.331-.126.08-.181.147-.122.148.059.002.051.253-.018.559-.092.411-.068.555.094.555.12 0 .18-.062.133-.139-.047-.076.031-.139.174-.139.146 0 .26-.141.26-.323 0-.178.075-.37.166-.427.092-.056.167.014.167.157 0 .204.198.26.917.26.504 0 .916.075.916.167 0 .192 2.107.231 2.225.041.043-.068-.33-.099-.829-.067-1.27.08-1.322.041-1.255-.953l.058-.855h1.968v.76c0 .464.065.72.167.657.091-.057.166-.005.166.115 0 .144.269.231.792.255.435.02 1.417.072 2.181.116 1.134.065 1.373.037 1.301-.15-.102-.268.459-.21.812.082.157.131.25.13.333-.005.063-.102.22-.145.348-.096.128.049.233.019.233-.067 0-.086.114-.113.253-.059.223.085.248-.408.209-4.13l-.045-4.228-5.417-.023c-2.979-.013-5.566.012-5.75.056m-41.916 3.967V39H338.5V37.167h3.667v.916m7.5 0V39h-4.334V37.167h4.334v.916m38.833-.25v.667h-2V37.167h2v.666m4.333 0v.667H391V37.167H392.833v.666m-33.102.235c.056.221.147.521.203.667.085.221-.039.265-.748.265-.788 0-.846-.028-.793-.375.031-.206.137-.375.235-.375.098 0 .24-.068.316-.152.081-.088.052-.101-.069-.032-.115.066-.208.046-.208-.044 0-.152.316-.29.773-.336.105-.011.236.161.291.382m9.451.327l.099.605h-.974c-.538 0-.974-.075-.974-.167 0-.091.117-.166.26-.166.143 0 .215-.074.159-.164-.224-.363.229-.799.785-.755.488.038.557.107.645.647m-45.889.475c-.04.12-.386.205-.846.208-.429.003-.78.062-.78.13a.105.105 0 0 1-.125.106c-.422-.067-.5.082-.48.915.017.7.073.875.259.804.169-.065.205-.009.127.197-.066.171-.044.246.054.185.14-.086.249.383.184.793-.033.21.281.139.37-.083.068-.167.087-.167.098 0 .007.115.133.208.28.208.18 0 .234.09.163.274-.086.224-.06.237.138.072.193-.16.337-.139.706.102.349.228.426.241.312.052-.13-.215-.112-.218.132-.021.247.201.284.186.303-.125.036-.622.059-.697.245-.818.3-.195.208-.702-.127-.702-.26 0-.306-.139-.306-.917 0-1.158.005-1.127-.201-1.375-.219-.264-.419-.266-.506-.005m5.39.514c-.101.1-.183.125-.183.054 0-.071-.131.003-.292.163-.205.205-.294.568-.3 1.22-.006.542-.081.915-.181.897-.094-.018-.171.072-.171.201 0 .128.062.194.138.147.077-.047.139.029.139.169 0 .172-.092.219-.286.145-.254-.098-.258-.08-.042.155.135.146.271.195.303.108.033-.09.158-.074.292.037.179.149.233.146.233-.01 0-.147.304-.186 1.083-.139.873.053 1.075.02 1.042-.174a.3.3 0 0 1 .19-.32c.155-.054.188-.009.099.134-.087.141-.066.173.063.093a.223.223 0 0 0 .082-.304c-.151-.244-.174-1.115-.028-1.024.063.038.087-.138.053-.391a12.094 12.094 0 0 1-.072-.676c-.008-.143-.219-.198-.637-.166-.43.032-.612-.018-.583-.161.023-.115-.015-.214-.083-.221a5.966 5.966 0 0 1-.401-.067.57.57 0 0 0-.458.13m-10.609 1.105c-.862.238-1.09 1.288-.351 1.618.198.088.267.14.152.115-.247-.053-.282.38-.042.528.092.057.167.024.167-.073a.18.18 0 0 1 .184-.177c.105 0 .138.122.077.282-.099.257-.082.259.19.026.431-.371.85-.487.928-.257.048.145.151.131.376-.051.275-.222.295-.222.181 0-.07.137-.009.104.135-.074.314-.387.345-.662.054-.487-.162.097-.165.071-.012-.118.157-.195.114-.323-.216-.641-.227-.218-.381-.481-.341-.584.077-.202-.886-.272-1.482-.107m74.759 1.261v.917h-.908c-1.054 0-1.215-.168-1.121-1.164l.064-.67H392.833v.917m-29 .917c0 .091.113.166.25.166.138 0 .25-.075.25-.166 0-.092-.112-.167-.25-.167-.137 0-.25.075-.25.167m3.75 0c-.056.091.056.166.25.166s.307-.075.25-.166c-.056-.092-.169-.167-.25-.167-.081 0-.193.075-.25.167m-5.789 1.284c.207.04.507.039.666-.003.16-.042-.01-.074-.377-.073-.366.002-.497.036-.289.076m4.75.002c.253.038.628.037.833-.002.205-.04-.002-.071-.46-.07-.459.001-.626.034-.373.072" fill="#4dced0"/><path d="M206.671 13.16c-.209.133-.202.172.049.268.162.062.341.066.398.009.057-.057.012-.104-.1-.104s-.158-.075-.101-.166c.127-.206.071-.207-.246-.007M27.289 21.833c-.28.326-.203.449.128.206.151-.111.313-.539.203-.539-.025 0-.174.15-.331.333m-1.693 1.087c-.177.134-.265.3-.195.37.069.069.214.007.321-.138.107-.146.307-.308.445-.362.222-.086.222-.098 0-.105-.138-.004-.395.102-.571.235m159.348 1.358c-.159.159-.137.389.038.389.082 0 .192-.113.245-.25.097-.254-.08-.342-.283-.139m-1.85 5.377c-.28.309-.277.318.057.231.192-.051.349-.195.349-.322 0-.305-.06-.292-.406.091m36.279 6.539a.757.757 0 0 0-.206.458c0 .219.036.216.269-.017.148-.148.241-.354.206-.458-.045-.137-.12-.132-.269.017m5.127 1.288c0 .112-.067.163-.149.112-.082-.051-.197.031-.254.181-.157.41-.021.435.32.058.167-.184.254-.385.193-.445-.06-.061-.11-.018-.11.094m-1.966 6.192c-.129.206-.14.326-.03.326.095 0 .218-.116.272-.257.15-.391-.012-.437-.242-.069" fill="#0ff"/></g></svg>